<mxfile host="app.diagrams.net" modified="2023-07-03T09:51:46.214Z" agent="Mozilla/5.0 (X11; Linux x86_64; rv:109.0) Gecko/20100101 Firefox/114.0" etag="Q4FYW36I7N_M7eW-UnCq" version="21.5.2" type="github">
  <diagram name="Pagina-1" id="U87yk9chCkfv6v5MAbVB">
    <mxGraphModel dx="880" dy="485" grid="1" gridSize="10" guides="1" tooltips="1" connect="1" arrows="1" fold="1" page="1" pageScale="1" pageWidth="827" pageHeight="1169" math="0" shadow="0">
      <root>
        <mxCell id="0" />
        <mxCell id="1" parent="0" />
      </root>
    </mxGraphModel>
  </diagram>
</mxfile>
